<mxfile host="app.diagrams.net" agent="Mozilla/5.0 (Windows NT 10.0; Win64; x64) AppleWebKit/537.36 (KHTML, like Gecko) Chrome/132.0.0.0 Safari/537.36 OPR/117.0.0.0" version="26.1.3">
  <diagram id="C5RBs43oDa-KdzZeNtuy" name="Page-1">
    <mxGraphModel dx="1803" dy="1678" grid="1" gridSize="10" guides="1" tooltips="1" connect="1" arrows="1" fold="1" page="1" pageScale="1" pageWidth="827" pageHeight="1169" math="0" shadow="0">
      <root>
        <mxCell id="WIyWlLk6GJQsqaUBKTNV-0" />
        <mxCell id="WIyWlLk6GJQsqaUBKTNV-1" parent="WIyWlLk6GJQsqaUBKTNV-0" />
        <mxCell id="piIGpl0qFVZ1CrThFg4S-10" style="edgeStyle=orthogonalEdgeStyle;rounded=0;orthogonalLoop=1;jettySize=auto;html=1;exitX=0.5;exitY=1;exitDx=0;exitDy=0;entryX=0.5;entryY=0;entryDx=0;entryDy=0;" edge="1" parent="WIyWlLk6GJQsqaUBKTNV-1" source="WIyWlLk6GJQsqaUBKTNV-3" target="piIGpl0qFVZ1CrThFg4S-5">
          <mxGeometry relative="1" as="geometry" />
        </mxCell>
        <mxCell id="WIyWlLk6GJQsqaUBKTNV-3" value="Right Click Block" style="rounded=1;whiteSpace=wrap;html=1;fontSize=12;glass=0;strokeWidth=1;shadow=0;" parent="WIyWlLk6GJQsqaUBKTNV-1" vertex="1">
          <mxGeometry x="160" y="80" width="120" height="40" as="geometry" />
        </mxCell>
        <mxCell id="WIyWlLk6GJQsqaUBKTNV-7" value="return false" style="rounded=1;whiteSpace=wrap;html=1;fontSize=12;glass=0;strokeWidth=1;shadow=0;" parent="WIyWlLk6GJQsqaUBKTNV-1" vertex="1">
          <mxGeometry x="370" y="225" width="120" height="40" as="geometry" />
        </mxCell>
        <mxCell id="piIGpl0qFVZ1CrThFg4S-12" style="edgeStyle=orthogonalEdgeStyle;rounded=0;orthogonalLoop=1;jettySize=auto;html=1;exitX=0.5;exitY=1;exitDx=0;exitDy=0;entryX=0.5;entryY=0;entryDx=0;entryDy=0;" edge="1" parent="WIyWlLk6GJQsqaUBKTNV-1" source="piIGpl0qFVZ1CrThFg4S-0" target="piIGpl0qFVZ1CrThFg4S-3">
          <mxGeometry relative="1" as="geometry" />
        </mxCell>
        <mxCell id="piIGpl0qFVZ1CrThFg4S-0" value="Get activeslot itemStack" style="shape=process;whiteSpace=wrap;html=1;backgroundOutline=1;" vertex="1" parent="WIyWlLk6GJQsqaUBKTNV-1">
          <mxGeometry x="160" y="390" width="120" height="60" as="geometry" />
        </mxCell>
        <mxCell id="piIGpl0qFVZ1CrThFg4S-18" style="edgeStyle=orthogonalEdgeStyle;rounded=0;orthogonalLoop=1;jettySize=auto;html=1;exitX=0.5;exitY=1;exitDx=0;exitDy=0;entryX=0.5;entryY=0;entryDx=0;entryDy=0;" edge="1" parent="WIyWlLk6GJQsqaUBKTNV-1" source="piIGpl0qFVZ1CrThFg4S-3" target="piIGpl0qFVZ1CrThFg4S-14">
          <mxGeometry relative="1" as="geometry" />
        </mxCell>
        <mxCell id="piIGpl0qFVZ1CrThFg4S-21" value="Yes" style="edgeLabel;html=1;align=center;verticalAlign=middle;resizable=0;points=[];" vertex="1" connectable="0" parent="piIGpl0qFVZ1CrThFg4S-18">
          <mxGeometry x="-0.2143" y="1" relative="1" as="geometry">
            <mxPoint as="offset" />
          </mxGeometry>
        </mxCell>
        <mxCell id="piIGpl0qFVZ1CrThFg4S-20" style="edgeStyle=orthogonalEdgeStyle;rounded=0;orthogonalLoop=1;jettySize=auto;html=1;exitX=1;exitY=0.5;exitDx=0;exitDy=0;entryX=0;entryY=0.5;entryDx=0;entryDy=0;" edge="1" parent="WIyWlLk6GJQsqaUBKTNV-1" source="piIGpl0qFVZ1CrThFg4S-3" target="piIGpl0qFVZ1CrThFg4S-19">
          <mxGeometry relative="1" as="geometry" />
        </mxCell>
        <mxCell id="piIGpl0qFVZ1CrThFg4S-22" value="No" style="edgeLabel;html=1;align=center;verticalAlign=middle;resizable=0;points=[];" vertex="1" connectable="0" parent="piIGpl0qFVZ1CrThFg4S-20">
          <mxGeometry x="-0.2648" y="2" relative="1" as="geometry">
            <mxPoint as="offset" />
          </mxGeometry>
        </mxCell>
        <mxCell id="piIGpl0qFVZ1CrThFg4S-3" value="Is the BlockEntity of type RecyclerBlockEntity?" style="rhombus;whiteSpace=wrap;html=1;shadow=0;fontFamily=Helvetica;fontSize=12;align=center;strokeWidth=1;spacing=6;spacingTop=-4;spacingLeft=12;spacingRight=12;" vertex="1" parent="WIyWlLk6GJQsqaUBKTNV-1">
          <mxGeometry x="145" y="500" width="150" height="150" as="geometry" />
        </mxCell>
        <mxCell id="piIGpl0qFVZ1CrThFg4S-8" style="edgeStyle=orthogonalEdgeStyle;rounded=0;orthogonalLoop=1;jettySize=auto;html=1;exitX=1;exitY=0.5;exitDx=0;exitDy=0;entryX=0;entryY=0.5;entryDx=0;entryDy=0;" edge="1" parent="WIyWlLk6GJQsqaUBKTNV-1" source="piIGpl0qFVZ1CrThFg4S-5" target="WIyWlLk6GJQsqaUBKTNV-7">
          <mxGeometry relative="1" as="geometry" />
        </mxCell>
        <mxCell id="piIGpl0qFVZ1CrThFg4S-9" value="No" style="edgeLabel;html=1;align=center;verticalAlign=middle;resizable=0;points=[];" vertex="1" connectable="0" parent="piIGpl0qFVZ1CrThFg4S-8">
          <mxGeometry x="-0.1789" relative="1" as="geometry">
            <mxPoint x="4" as="offset" />
          </mxGeometry>
        </mxCell>
        <mxCell id="piIGpl0qFVZ1CrThFg4S-11" style="edgeStyle=orthogonalEdgeStyle;rounded=0;orthogonalLoop=1;jettySize=auto;html=1;exitX=0.5;exitY=1;exitDx=0;exitDy=0;entryX=0.5;entryY=0;entryDx=0;entryDy=0;" edge="1" parent="WIyWlLk6GJQsqaUBKTNV-1" source="piIGpl0qFVZ1CrThFg4S-5" target="piIGpl0qFVZ1CrThFg4S-0">
          <mxGeometry relative="1" as="geometry" />
        </mxCell>
        <mxCell id="piIGpl0qFVZ1CrThFg4S-13" value="Yes" style="edgeLabel;html=1;align=center;verticalAlign=middle;resizable=0;points=[];" vertex="1" connectable="0" parent="piIGpl0qFVZ1CrThFg4S-11">
          <mxGeometry x="-0.1409" y="3" relative="1" as="geometry">
            <mxPoint x="-3" as="offset" />
          </mxGeometry>
        </mxCell>
        <mxCell id="piIGpl0qFVZ1CrThFg4S-5" value="Does the Player have access rights?" style="rhombus;whiteSpace=wrap;html=1;shadow=0;fontFamily=Helvetica;fontSize=12;align=center;strokeWidth=1;spacing=6;spacingTop=-4;spacingLeft=12;spacingRight=12;" vertex="1" parent="WIyWlLk6GJQsqaUBKTNV-1">
          <mxGeometry x="145" y="170" width="150" height="150" as="geometry" />
        </mxCell>
        <mxCell id="piIGpl0qFVZ1CrThFg4S-17" style="edgeStyle=orthogonalEdgeStyle;rounded=0;orthogonalLoop=1;jettySize=auto;html=1;exitX=1;exitY=0.5;exitDx=0;exitDy=0;entryX=0;entryY=0.5;entryDx=0;entryDy=0;" edge="1" parent="WIyWlLk6GJQsqaUBKTNV-1" source="piIGpl0qFVZ1CrThFg4S-14" target="piIGpl0qFVZ1CrThFg4S-15">
          <mxGeometry relative="1" as="geometry" />
        </mxCell>
        <mxCell id="piIGpl0qFVZ1CrThFg4S-26" value="Yes" style="edgeLabel;html=1;align=center;verticalAlign=middle;resizable=0;points=[];" vertex="1" connectable="0" parent="piIGpl0qFVZ1CrThFg4S-17">
          <mxGeometry x="-0.3644" relative="1" as="geometry">
            <mxPoint as="offset" />
          </mxGeometry>
        </mxCell>
        <mxCell id="piIGpl0qFVZ1CrThFg4S-28" style="edgeStyle=orthogonalEdgeStyle;rounded=0;orthogonalLoop=1;jettySize=auto;html=1;exitX=0.5;exitY=1;exitDx=0;exitDy=0;entryX=0.5;entryY=0;entryDx=0;entryDy=0;" edge="1" parent="WIyWlLk6GJQsqaUBKTNV-1" source="piIGpl0qFVZ1CrThFg4S-14" target="piIGpl0qFVZ1CrThFg4S-16">
          <mxGeometry relative="1" as="geometry" />
        </mxCell>
        <mxCell id="piIGpl0qFVZ1CrThFg4S-29" value="No" style="edgeLabel;html=1;align=center;verticalAlign=middle;resizable=0;points=[];" vertex="1" connectable="0" parent="piIGpl0qFVZ1CrThFg4S-28">
          <mxGeometry x="-0.0667" relative="1" as="geometry">
            <mxPoint as="offset" />
          </mxGeometry>
        </mxCell>
        <mxCell id="piIGpl0qFVZ1CrThFg4S-14" value="Does the held itemStack have behavior Can Ignite?" style="rhombus;whiteSpace=wrap;html=1;shadow=0;fontFamily=Helvetica;fontSize=12;align=center;strokeWidth=1;spacing=6;spacingTop=-4;spacingLeft=12;spacingRight=12;" vertex="1" parent="WIyWlLk6GJQsqaUBKTNV-1">
          <mxGeometry x="145" y="710" width="150" height="150" as="geometry" />
        </mxCell>
        <mxCell id="piIGpl0qFVZ1CrThFg4S-25" style="edgeStyle=orthogonalEdgeStyle;rounded=0;orthogonalLoop=1;jettySize=auto;html=1;exitX=1;exitY=0.5;exitDx=0;exitDy=0;entryX=0;entryY=0.5;entryDx=0;entryDy=0;" edge="1" parent="WIyWlLk6GJQsqaUBKTNV-1" source="piIGpl0qFVZ1CrThFg4S-15" target="piIGpl0qFVZ1CrThFg4S-23">
          <mxGeometry relative="1" as="geometry" />
        </mxCell>
        <mxCell id="piIGpl0qFVZ1CrThFg4S-27" value="Yes" style="edgeLabel;html=1;align=center;verticalAlign=middle;resizable=0;points=[];" vertex="1" connectable="0" parent="piIGpl0qFVZ1CrThFg4S-25">
          <mxGeometry x="-0.4239" y="-1" relative="1" as="geometry">
            <mxPoint x="6" y="-1" as="offset" />
          </mxGeometry>
        </mxCell>
        <mxCell id="piIGpl0qFVZ1CrThFg4S-15" value="Is the recycler lit?" style="rhombus;whiteSpace=wrap;html=1;shadow=0;fontFamily=Helvetica;fontSize=12;align=center;strokeWidth=1;spacing=6;spacingTop=-4;spacingLeft=12;spacingRight=12;" vertex="1" parent="WIyWlLk6GJQsqaUBKTNV-1">
          <mxGeometry x="355" y="710" width="150" height="150" as="geometry" />
        </mxCell>
        <mxCell id="piIGpl0qFVZ1CrThFg4S-32" style="edgeStyle=orthogonalEdgeStyle;rounded=0;orthogonalLoop=1;jettySize=auto;html=1;exitX=1;exitY=0.5;exitDx=0;exitDy=0;entryX=0;entryY=0.5;entryDx=0;entryDy=0;" edge="1" parent="WIyWlLk6GJQsqaUBKTNV-1" source="piIGpl0qFVZ1CrThFg4S-16" target="piIGpl0qFVZ1CrThFg4S-31">
          <mxGeometry relative="1" as="geometry" />
        </mxCell>
        <mxCell id="piIGpl0qFVZ1CrThFg4S-35" value="Yes" style="edgeLabel;html=1;align=center;verticalAlign=middle;resizable=0;points=[];" vertex="1" connectable="0" parent="piIGpl0qFVZ1CrThFg4S-32">
          <mxGeometry x="-0.3111" y="2" relative="1" as="geometry">
            <mxPoint as="offset" />
          </mxGeometry>
        </mxCell>
        <mxCell id="piIGpl0qFVZ1CrThFg4S-43" style="edgeStyle=orthogonalEdgeStyle;rounded=0;orthogonalLoop=1;jettySize=auto;html=1;exitX=0.5;exitY=1;exitDx=0;exitDy=0;" edge="1" parent="WIyWlLk6GJQsqaUBKTNV-1" source="piIGpl0qFVZ1CrThFg4S-16">
          <mxGeometry relative="1" as="geometry">
            <mxPoint x="220.4000000000001" y="1360" as="targetPoint" />
          </mxGeometry>
        </mxCell>
        <mxCell id="piIGpl0qFVZ1CrThFg4S-44" value="No" style="edgeLabel;html=1;align=center;verticalAlign=middle;resizable=0;points=[];" vertex="1" connectable="0" parent="piIGpl0qFVZ1CrThFg4S-43">
          <mxGeometry x="-0.179" y="3" relative="1" as="geometry">
            <mxPoint x="-3" y="11" as="offset" />
          </mxGeometry>
        </mxCell>
        <mxCell id="piIGpl0qFVZ1CrThFg4S-16" value="Is the player holding sneak key?" style="rhombus;whiteSpace=wrap;html=1;shadow=0;fontFamily=Helvetica;fontSize=12;align=center;strokeWidth=1;spacing=6;spacingTop=-4;spacingLeft=12;spacingRight=12;" vertex="1" parent="WIyWlLk6GJQsqaUBKTNV-1">
          <mxGeometry x="145" y="920" width="150" height="150" as="geometry" />
        </mxCell>
        <mxCell id="piIGpl0qFVZ1CrThFg4S-19" value="return false" style="rounded=1;whiteSpace=wrap;html=1;fontSize=12;glass=0;strokeWidth=1;shadow=0;" vertex="1" parent="WIyWlLk6GJQsqaUBKTNV-1">
          <mxGeometry x="370" y="555" width="120" height="40" as="geometry" />
        </mxCell>
        <mxCell id="piIGpl0qFVZ1CrThFg4S-23" value="Call entity right click" style="rounded=1;whiteSpace=wrap;html=1;fontSize=12;glass=0;strokeWidth=1;shadow=0;" vertex="1" parent="WIyWlLk6GJQsqaUBKTNV-1">
          <mxGeometry x="570" y="765" width="120" height="40" as="geometry" />
        </mxCell>
        <mxCell id="piIGpl0qFVZ1CrThFg4S-34" style="edgeStyle=orthogonalEdgeStyle;rounded=0;orthogonalLoop=1;jettySize=auto;html=1;exitX=1;exitY=0.5;exitDx=0;exitDy=0;entryX=0;entryY=0.5;entryDx=0;entryDy=0;" edge="1" parent="WIyWlLk6GJQsqaUBKTNV-1" source="piIGpl0qFVZ1CrThFg4S-31" target="piIGpl0qFVZ1CrThFg4S-33">
          <mxGeometry relative="1" as="geometry" />
        </mxCell>
        <mxCell id="piIGpl0qFVZ1CrThFg4S-36" value="Yes" style="edgeLabel;html=1;align=center;verticalAlign=middle;resizable=0;points=[];" vertex="1" connectable="0" parent="piIGpl0qFVZ1CrThFg4S-34">
          <mxGeometry x="-0.347" y="2" relative="1" as="geometry">
            <mxPoint as="offset" />
          </mxGeometry>
        </mxCell>
        <mxCell id="piIGpl0qFVZ1CrThFg4S-38" style="edgeStyle=orthogonalEdgeStyle;rounded=0;orthogonalLoop=1;jettySize=auto;html=1;exitX=0.5;exitY=1;exitDx=0;exitDy=0;entryX=0.5;entryY=0;entryDx=0;entryDy=0;" edge="1" parent="WIyWlLk6GJQsqaUBKTNV-1" source="piIGpl0qFVZ1CrThFg4S-31" target="piIGpl0qFVZ1CrThFg4S-37">
          <mxGeometry relative="1" as="geometry" />
        </mxCell>
        <mxCell id="piIGpl0qFVZ1CrThFg4S-42" value="No" style="edgeLabel;html=1;align=center;verticalAlign=middle;resizable=0;points=[];" vertex="1" connectable="0" parent="piIGpl0qFVZ1CrThFg4S-38">
          <mxGeometry x="-0.1933" y="1" relative="1" as="geometry">
            <mxPoint as="offset" />
          </mxGeometry>
        </mxCell>
        <mxCell id="piIGpl0qFVZ1CrThFg4S-31" value="Is the held item recyclable?" style="rhombus;whiteSpace=wrap;html=1;shadow=0;fontFamily=Helvetica;fontSize=12;align=center;strokeWidth=1;spacing=6;spacingTop=-4;spacingLeft=12;spacingRight=12;" vertex="1" parent="WIyWlLk6GJQsqaUBKTNV-1">
          <mxGeometry x="355" y="920" width="150" height="150" as="geometry" />
        </mxCell>
        <mxCell id="piIGpl0qFVZ1CrThFg4S-33" value="Try add item to input" style="rounded=1;whiteSpace=wrap;html=1;fontSize=12;glass=0;strokeWidth=1;shadow=0;" vertex="1" parent="WIyWlLk6GJQsqaUBKTNV-1">
          <mxGeometry x="570" y="975" width="120" height="40" as="geometry" />
        </mxCell>
        <mxCell id="piIGpl0qFVZ1CrThFg4S-40" style="edgeStyle=orthogonalEdgeStyle;rounded=0;orthogonalLoop=1;jettySize=auto;html=1;exitX=1;exitY=0.5;exitDx=0;exitDy=0;entryX=0;entryY=0.5;entryDx=0;entryDy=0;" edge="1" parent="WIyWlLk6GJQsqaUBKTNV-1" source="piIGpl0qFVZ1CrThFg4S-37" target="piIGpl0qFVZ1CrThFg4S-39">
          <mxGeometry relative="1" as="geometry" />
        </mxCell>
        <mxCell id="piIGpl0qFVZ1CrThFg4S-41" value="Yes" style="edgeLabel;html=1;align=center;verticalAlign=middle;resizable=0;points=[];" vertex="1" connectable="0" parent="piIGpl0qFVZ1CrThFg4S-40">
          <mxGeometry x="-0.1323" relative="1" as="geometry">
            <mxPoint as="offset" />
          </mxGeometry>
        </mxCell>
        <mxCell id="piIGpl0qFVZ1CrThFg4S-37" value="Is the held item combustible?" style="rhombus;whiteSpace=wrap;html=1;shadow=0;fontFamily=Helvetica;fontSize=12;align=center;strokeWidth=1;spacing=6;spacingTop=-4;spacingLeft=12;spacingRight=12;" vertex="1" parent="WIyWlLk6GJQsqaUBKTNV-1">
          <mxGeometry x="355" y="1130" width="150" height="150" as="geometry" />
        </mxCell>
        <mxCell id="piIGpl0qFVZ1CrThFg4S-39" value="Try add item to fuel" style="rounded=1;whiteSpace=wrap;html=1;fontSize=12;glass=0;strokeWidth=1;shadow=0;" vertex="1" parent="WIyWlLk6GJQsqaUBKTNV-1">
          <mxGeometry x="570" y="1185" width="120" height="40" as="geometry" />
        </mxCell>
        <mxCell id="piIGpl0qFVZ1CrThFg4S-45" value="Call entity right click" style="rounded=1;whiteSpace=wrap;html=1;fontSize=12;glass=0;strokeWidth=1;shadow=0;" vertex="1" parent="WIyWlLk6GJQsqaUBKTNV-1">
          <mxGeometry x="160" y="1360" width="120" height="40" as="geometry" />
        </mxCell>
      </root>
    </mxGraphModel>
  </diagram>
</mxfile>
